{
  "accessors": [
    {
      "bufferView": 2,
      "componentType": 5126,
      "count": 28187,
      "max": [
        0.54229915142059326,
        1.8791629076004028,
        3.1533629894256592
      ],
      "min": [
        -5.0445752143859863,
        -1.8764535188674927,
        -0.94383549690246582
      ],
      "type": "VEC3"
    },
    {
      "bufferView": 2,
      "byteOffset": 338244,
      "componentType": 5126,
      "count": 28187,
      "max": [
        1,
        1,
        1
      ],
      "min": [
        -1,
        -1,
        -1
      ],
      "type": "VEC3"
    },
    {
      "bufferView": 3,
      "componentType": 5126,
      "count": 28187,
      "max": [
        1,
        1,
        1,
        1
      ],
      "min": [
        -1,
        -1,
        -1,
        -1
      ],
      "type": "VEC4"
    },
    {
      "bufferView": 1,
      "componentType": 5126,
      "count": 28187,
      "max": [
        0.984375,
        0.984375
      ],
      "min": [
        0.015625,
        0.015625
      ],
      "type": "VEC2"
    },
    {
      "bufferView": 0,
      "componentType": 5125,
      "count": 125652,
      "max": [
        28186
      ],
      "min": [
        0
      ],
      "type": "SCALAR"
    }
  ],
  "asset": {
    "extras": {
      "author": "MartianDays (https://sketchfab.com/aeries)",
      "license": "CC-BY-4.0 (http://creativecommons.org/licenses/by/4.0/)",
      "source": "https://sketchfab.com/3d-models/f1-f7605a2b068143a096f9a8d6f714f7ec",
      "title": "F1"
    },
    "generator": "Sketchfab-5.24.0",
    "version": "2.0"
  },
  "bufferViews": [
    {
      "buffer": 0,
      "byteLength": 502608,
      "byteOffset": 0,
      "name": "floatBufferViews",
      "target": 34963
    },
    {
      "buffer": 0,
      "byteLength": 225496,
      "byteOffset": 502608,
      "byteStride": 8,
      "name": "floatBufferViews",
      "target": 34962
    },
    {
      "buffer": 0,
      "byteLength": 676488,
      "byteOffset": 728104,
      "byteStride": 12,
      "name": "floatBufferViews",
      "target": 34962
    },
    {
      "buffer": 0,
      "byteLength": 450992,
      "byteOffset": 1404592,
      "byteStride": 16,
      "name": "floatBufferViews",
      "target": 34962
    }
  ],
  "buffers": [
    {
      "byteLength": 1855584,
      "uri": "scene.bin"
    }
  ],
  "images": [
    {
      "uri": "textures/Engine_MainMetal_metallicRoughness.png"
    },
    {
      "uri": "textures/Engine_MainMetal_normal.png"
    },
    {
      "uri": "textures/Engine_MainMetal_baseColor.png"
    }
  ],
  "materials": [
    {
      "doubleSided": true,
      "name": "Engine_MainMetal",
      "normalTexture": {
        "index": 1,
        "scale": 1,
        "texCoord": 0
      },
      "pbrMetallicRoughness": {
        "baseColorFactor": [
          1,
          1,
          1,
          1
        ],
        "baseColorTexture": {
          "index": 2,
          "texCoord": 0
        },
        "metallicFactor": 1,
        "metallicRoughnessTexture": {
          "index": 0,
          "texCoord": 0
        },
        "roughnessFactor": 1
      }
    }
  ],
  "meshes": [
    {
      "name": "F1 Main Chamber.001_Engine_MainMetal_0",
      "primitives": [
        {
          "attributes": {
            "NORMAL": 1,
            "POSITION": 0,
            "TANGENT": 2,
            "TEXCOORD_0": 3
          },
          "indices": 4,
          "material": 0,
          "mode": 4
        }
      ]
    }
  ],
  "nodes": [
    {
      "children": [
        1
      ],
      "name": "RootNode (gltf orientation matrix)",
      "rotation": [
        -0.70710678118654746,
        -0,
        -0,
        0.70710678118654757
      ]
    },
    {
      "children": [
        2
      ],
      "matrix": [
        1,
        0,
        0,
        0,
        0,
        -0.99999910593032837,
        -0.0013151280581951141,
        0,
        0,
        0.0013151280581951141,
        -0.99999910593032837,
        0,
        -1.157790029537864e-05,
        0.36706066131591797,
        -556.2269287109375,
        1
      ],
      "name": "RootNode (model correction matrix)"
    },
    {
      "children": [
        3
      ],
      "matrix": [
        1,
        0,
        0,
        0,
        0,
        -1,
        0,
        0,
        0,
        0,
        -1,
        0,
        0,
        0,
        0,
        1
      ],
      "name": "49d8c270aab84520bdf6b28ee690ea39.fbx"
    },
    {
      "children": [
        4
      ],
      "name": "RootNode"
    },
    {
      "children": [
        5
      ],
      "matrix": [
        7.5497899598708784e-06,
        0,
        99.999999999999702,
        0,
        1.5099579909783665e-05,
        -99.999999999998849,
        -1.1399865659576347e-12,
        0,
        99.999999999998565,
        1.5099579909783707e-05,
        -7.5497899487686482e-06,
        0,
        -128.16668701171875,
        0.13545453548431396,
        503.22772216796875,
        1
      ],
      "name": "F1 Main Chamber.001"
    },
    {
      "mesh": 0,
      "name": "F1 Main Chamber.001_Engine_MainMetal_0"
    }
  ],
  "samplers": [
    {
      "magFilter": 9729,
      "minFilter": 9987,
      "wrapS": 10497,
      "wrapT": 10497
    }
  ],
  "scene": 0,
  "scenes": [
    {
      "name": "OSG_Scene",
      "nodes": [
        0
      ]
    }
  ],
  "textures": [
    {
      "sampler": 0,
      "source": 0
    },
    {
      "sampler": 0,
      "source": 1
    },
    {
      "sampler": 0,
      "source": 2
    }
  ]
}

